#!OML:ASF Y:\EmotionMaleHayes\Project 1\Capture day 1\Session 1\Male1.ASF
:FULLY-SPECIFIED
:DEGREES
35
root 6.33412 17.2974 0.70279 45.6635 85.1182 47.6582
lowerback 4.07235 2.63275 -5.86747
upperback 1.93523 3.33465 -1.38708
thorax -0.53344 1.66528 1.69784
lowerneck -16.7678 0.930239 -0.286148
upperneck 38.0943 4.81009 -3.78258
head 16.6937 1.93525 -0.561566
rclavicle -2.41772e-014 9.74045e-015
rhumerus -35.3854 -10.7772 -85.3093
rradius 33.0679
rwrist -9.43244
rhand -10.6456 -31.9151
rfingers 7.12502
rthumb 15.3619 -61.3244
lclavicle -2.41772e-014 9.74045e-015
lhumerus -30.3417 -7.33638 88.6845
lradius 26.0303
lwrist -3.78016
lhand -14.6359 -23.6171
lfingers 7.12502
lthumb 11.5159 6.04654
rfemur 9.29788 -5.81937 1.17614
rtibia 1.08506
rfoot -8.44699 -3.15464
rtoes -0.956575
lfemur 15.9652 -2.94864 -14.1396
ltibia -5.52748
lfoot -11.9854 16.3525
ltoes -0.996651
36
root 6.33469 17.2972 0.703238 46.4082 85.1013 48.4
lowerback 4.18548 2.58262 -5.88827
upperback 1.8655 3.25499 -1.44431
thorax -0.660545 1.62997 1.6475
lowerneck -16.7076 0.786079 -0.452306
upperneck 38.0334 4.74629 -4.03832
head 16.6533 1.85005 -0.657884
rclavicle -2.47487e-014 2.66371e-014
rhumerus -35.8487 -10.4535 -85.4206
rradius 34.1268
rwrist -10.6855
rhand -10.8189 -32.6223
rfingers 7.12502
rthumb 15.195 -62.0444
lclavicle -2.47487e-014 2.66371e-014
lhumerus -30.5946 -6.65805 88.2138
lradius 26.4409
lwrist -2.95006
lhand -14.7323 -23.4935
lfingers 7.12502
lthumb 11.4229 6.17529
rfemur 9.34023 -5.79511 1.11876
rtibia 1.02366
rfoot -8.51223 -3.2075
rtoes -1.28559
lfemur 15.9485 -2.96149 -14.2137
ltibia -5.53427
lfoot -11.9758 16.3774
ltoes -0.977505
37
root 6.33417 17.2971 0.702847 45.865 85.1515 47.8494
lowerback 4.21278 2.52542 -5.83677
upperback 1.8696 3.17868 -1.42455
thorax -0.664566 1.59188 1.64245
lowerneck -16.4569 0.616596 -0.874531
upperneck 37.7122 4.62495 -4.14706
head 16.4151 1.72694 -0.654956
rclavicle -1.79403e-014 1.90833e-014
rhumerus -36.1623 -9.99789 -85.4951
rradius 35.2012
rwrist -11.7014
rhand -10.6967 -33.7115
rfingers 7.12502
rthumb 15.3126 -63.1247
lclavicle -1.79403e-014 1.90833e-014
lhumerus -30.636 -5.92454 87.7613
lradius 26.7442
lwrist -2.10728
lhand -14.8188 -23.5371
lfingers 7.12502
lthumb 11.3395 6.1363
rfemur 9.32603 -5.72131 1.24012
rtibia 1.03559
rfoot -8.55514 -3.28358
rtoes -1.52224
lfemur 15.9323 -2.97587 -14.1312
ltibia -5.52071
lfoot -12.0027 16.3636
ltoes -1.2721
38
root 6.33455 17.2977 0.703071 44.6315 85.1886 46.6125
lowerback 4.18394 2.49131 -5.80075
upperback 1.91105 3.1388 -1.3808
thorax -0.603461 1.56968 1.67223
lowerneck -16.3251 0.448431 -1.06706
upperneck 37.4944 4.52042 -4.44888
head 16.2769 1.61538 -0.772561
rclavicle 3.90363e-014 -1.11319e-014
rhumerus -36.2788 -9.39613 -85.5783
rradius 35.9295
rwrist -12.5907
rhand -10.8178 -33.9922
rfingers 7.12502
rthumb 15.196 -63.4142
lclavicle 3.90363e-014 -1.11319e-014
lhumerus -30.5387 -5.11993 87.3086
lradius 26.8862
lwrist -1.65725
lhand -14.9879 -23.5433
lfingers 7.12502
lthumb 11.1764 6.13905
rfemur 9.30193 -5.64088 1.39543
rtibia 1.04644
rfoot -8.55939 -3.43331
rtoes -2.01679
lfemur 15.938 -2.9517 -13.9972
ltibia -5.49325
lfoot -11.9832 16.3415
ltoes -1.99977
39
root 6.33492 17.2981 0.703396 43.947 85.2191 45.9301
lowerback 4.17958 2.46609 -5.7738
upperback 1.94102 3.10819 -1.36178
thorax -0.567601 1.55313 1.67959
lowerneck -16.4475 0.229245 -1.19826
upperneck 37.5025 4.37099 -4.78924
head 16.3206 1.48256 -0.925827
rclavicle -9.44227e-015 1.15295e-014
rhumerus -36.5496 -8.56273 -85.7254
rradius 36.8635
rwrist -13.3666
rhand -11.0043 -33.9146
rfingers 7.12502
rthumb 15.0164 -63.3501
lclavicle -9.44227e-015 1.15295e-014
lhumerus -30.5817 -4.5422 86.9452
lradius 27.1101
lwrist -1.22196
lhand -15.1477 -23.5697
lfingers 7.12502
lthumb 11.0223 6.12086
rfemur 9.29433 -5.68593 1.46186
rtibia 1.05948
rfoot -8.51809 -3.46468
rtoes -2.57612
lfemur 15.9534 -2.93647 -13.9132
ltibia -5.48249
lfoot -11.998 16.309
ltoes -1.93378
40
root 6.33506 17.2974 0.703434 43.4145 85.2763 45.4161
lowerback 4.17137 2.43371 -5.74237
upperback 1.99631 3.06984 -1.31805
thorax -0.504037 1.5316 1.71113
lowerneck -16.5406 0.0758481 -1.43577
upperneck 37.4169 4.3284 -5.08329
head 16.3088 1.38618 -1.01952
rclavicle -9.44227e-016 -1.98785e-015
rhumerus -36.9471 -7.42924 -85.9125
rradius 38.1653
rwrist -14.1295
rhand -10.9824 -34.1735
rfingers 7.12502
rthumb 15.0375 -63.6074
lclavicle -9.44227e-016 -1.98785e-015
lhumerus -30.6725 -4.14922 86.6923
lradius 27.4564
lwrist -0.638115
lhand -15.2749 -23.2821
lfingers 7.12502
lthumb 10.8996 6.415
rfemur 9.32192 -5.68319 1.55259
rtibia 1.05196
rfoot -8.52577 -3.48022
rtoes -2.85152
lfemur 15.982 -2.94698 -13.8213
ltibia -5.49173
lfoot -12.0607 16.2808
ltoes -1.2461
41
root 6.33547 17.2973 0.702255 43.3364 85.2969 45.3451
lowerback 4.14587 2.38259 -5.76806
upperback 2.06201 3.00665 -1.2902
thorax -0.420078 1.49698 1.76035
lowerneck -16.547 -0.0166177 -1.60309
upperneck 37.19 4.35254 -5.43596
head 16.2089 1.32175 -1.13706
rclavicle 2.8948e-014 -2.62396e-014
rhumerus -37.2807 -6.24117 -86.1058
rradius 39.4335
rwrist -14.6536
rhand -10.9036 -34.2068
rfingers 7.12502
rthumb 15.1134 -63.635
lclavicle 2.8948e-014 -2.62396e-014
lhumerus -30.7527 -3.78959 86.3824
lradius 27.8937
lwrist -0.196746
lhand -15.4492 -22.7876
lfingers 7.12502
lthumb 10.7315 6.91831
rfemur 9.34175 -5.66438 1.57514
rtibia 1.02824
rfoot -8.52282 -3.50223
rtoes -2.53054
lfemur 15.9923 -2.93012 -13.7951
ltibia -5.50404
lfoot -12.0386 16.2978
ltoes -1.41593
42
root 6.337 17.2972 0.699972 43.9729 85.2354 45.9726
lowerback 4.10621 2.34123 -5.86893
upperback 2.11932 2.95498 -1.30248
thorax -0.338938 1.46826 1.80972
lowerneck -16.5434 -0.175047 -1.80457
upperneck 36.9716 4.28701 -5.78789
head 16.1082 1.21591 -1.26394
rclavicle 1.23246e-014 -8.15017e-015
rhumerus -37.4675 -5.1418 -86.2493
rradius 40.4076
rwrist -14.9259
rhand -10.8363 -33.8514
rfingers 7.12502
rthumb 15.1782 -63.2747
lclavicle 1.23246e-014 -8.15017e-015
lhumerus -30.8054 -3.56134 86.069
lradius 28.2677
lwrist 0.249289
lhand -15.3669 -22.4432
lfingers 7.12502
lthumb 10.8109 7.25854
rfemur 9.33078 -5.75953 1.42881
rtibia 1.04335
rfoot -8.46811 -3.41459
rtoes -1.92199
lfemur 15.9979 -2.91638 -13.9158
ltibia -5.53703
lfoot -11.9062 16.3692
ltoes -2.21858
43
root 6.33881 17.2966 0.69709 44.4171 85.1801 46.399
lowerback 4.05942 2.33351 -5.90981
upperback 2.16386 2.94996 -1.32044
thorax -0.267337 1.46348 1.81742
lowerneck -16.509 -0.378416 -2.17643
upperneck 36.8248 4.18569 -6.03217
head 16.03 1.08859 -1.32022
rclavicle 1.84621e-014 -7.95139e-016
rhumerus -37.7444 -3.79903 -86.4111
rradius 41.4483
rwrist -15.2372
rhand -10.6688 -33.78
rfingers 7.12502
rthumb 15.3395 -63.191
lclavicle 1.84621e-014 -7.95139e-016
lhumerus -30.8891 -3.46442 85.8156
lradius 28.6161
lwrist 0.465869
lhand -15.4006 -22.3956
lfingers 7.12502
lthumb 10.7784 7.3079
rfemur 9.30492 -5.73397 1.3477
rtibia 1.0513
rfoot -8.48334 -3.4746
rtoes -1.98445
lfemur 16.0064 -2.9826 -14.0461
ltibia -5.58082
lfoot -11.863 16.4651
ltoes -2.10314
